HIERARCHY
ROOT joint_0
{
	OFFSET 0.000000 0.000000 0.000000
	CHANNELS 6 Xposition Yposition Zposition Zrotation Yrotation Xrotation 
	JOINT joint_1
	{
		OFFSET 14.113007 -2.961990 123.953979
		CHANNELS 3 Zrotation Yrotation Xrotation
		JOINT joint_2
		{
			OFFSET 0.764000 -2.434006 113.871948
			CHANNELS 3 Zrotation Yrotation Xrotation
			JOINT joint_3
			{
				OFFSET 0.186996 -2.169998 113.753052
				CHANNELS 3 Zrotation Yrotation Xrotation
				JOINT joint_4
				{
					OFFSET 16.096001 -2.720001 160.853027
					CHANNELS 3 Zrotation Yrotation Xrotation
					JOINT joint_5
					{
						OFFSET 34.392006 -0.188995 92.567017
						CHANNELS 3 Zrotation Yrotation Xrotation
						End Site
						{
							OFFSET 0.000000 0.000000 0.000000
						}
					}
				}
				JOINT joint_6
				{
					OFFSET 9.183998 -36.684006 89.597046
					CHANNELS 3 Zrotation Yrotation Xrotation
					JOINT joint_7
					{
						OFFSET 0.486000 -164.365997 -28.984009
						CHANNELS 3 Zrotation Yrotation Xrotation
						JOINT joint_8
						{
							OFFSET 38.899002 -34.967010 -291.651978
							CHANNELS 3 Zrotation Yrotation Xrotation
							JOINT joint_9
							{
								OFFSET 41.714005 -45.890991 -258.857056
								CHANNELS 3 Zrotation Yrotation Xrotation
								End Site
								{
									OFFSET 0.000000 0.000000 0.000000
								}
							}
						}
					}
				}
				JOINT joint_10
				{
					OFFSET 8.867004 33.650002 90.817993
					CHANNELS 3 Zrotation Yrotation Xrotation
					JOINT joint_11
					{
						OFFSET 0.018997 164.299999 -29.368042
						CHANNELS 3 Zrotation Yrotation Xrotation
						JOINT joint_12
						{
							OFFSET 29.440994 30.887997 -293.216919
							CHANNELS 3 Zrotation Yrotation Xrotation
							JOINT joint_13
							{
								OFFSET 46.174011 54.490005 -256.422058
								CHANNELS 3 Zrotation Yrotation Xrotation
								End Site
								{
									OFFSET 0.000000 0.000000 0.000000
								}
							}
						}
					}
				}
			}
		}
	}
	JOINT joint_14
	{
		OFFSET -2.264000 -89.466995 -116.150024
		CHANNELS 3 Zrotation Yrotation Xrotation
		JOINT joint_15
		{
			OFFSET -16.400993 -17.452988 -493.781982
			CHANNELS 3 Zrotation Yrotation Xrotation
			JOINT joint_16
			{
				OFFSET -50.497004 -13.404022 -424.754013
				CHANNELS 3 Zrotation Yrotation Xrotation
				JOINT joint_17
				{
					OFFSET 198.546007 -19.341003 -89.309000
					CHANNELS 3 Zrotation Yrotation Xrotation
					End Site
					{
						OFFSET 0.000000 0.000000 0.000000
					}
				}
			}
		}
	}
	JOINT joint_18
	{
		OFFSET -0.867996 96.016006 -110.817993
		CHANNELS 3 Zrotation Yrotation Xrotation
		JOINT joint_19
		{
			OFFSET -10.130997 24.658998 -493.645020
			CHANNELS 3 Zrotation Yrotation Xrotation
			JOINT joint_20
			{
				OFFSET -48.871004 19.434999 -424.714005
				CHANNELS 3 Zrotation Yrotation Xrotation
				JOINT joint_21
				{
					OFFSET 195.579996 24.926001 -94.327003
					CHANNELS 3 Zrotation Yrotation Xrotation
					End Site
					{
						OFFSET 0.000000 0.000000 0.000000
					}
				}
			}
		}
	}
}
MOTION
Frames: 10
Frame Time: 0.016667
57.101000 -145.362000 1143.553960 0.766000 -2.465642 -0.777740 -0.160455 -0.008126 0.790983 -0.154862 0.001903 -0.175603 -0.155082 0.013165 0.111756 0.166662 -0.584378 -0.450645 0.000000 0.000000 0.000000 -0.114256 0.343703 0.071294 -0.024264 0.328103 0.189394 -0.043958 0.080372 -0.184339 0.000000 0.000000 0.000000 0.417986 0.509833 0.198486 0.027352 0.439960 -0.305211 0.023347 0.025684 0.099363 0.000000 0.000000 0.000000 -0.235336 0.734453 0.617162 -0.215093 0.847963 -0.133063 -0.173860 -0.488166 -0.125650 0.000000 0.000000 0.000000 -0.204922 0.892000 0.334375 -0.250824 -0.086047 0.170355 -0.178993 0.634045 -0.167028 0.000000 0.000000 0.000000 
57.787000 -145.085010 1143.713010 0.758824 -2.233068 -0.771005 -0.220659 0.059498 0.897133 -0.215348 -0.001175 -0.237642 -0.215858 0.003535 0.154511 0.168131 -0.882983 -0.456366 0.000000 0.000000 0.000000 -0.363445 0.326170 -0.072260 0.010563 0.261128 0.262274 0.013841 -0.179824 -0.111964 0.000000 0.000000 0.000000 0.705601 0.668648 0.343885 -0.019611 0.538862 -0.438669 -0.069482 -0.200507 -0.149255 0.000000 0.000000 0.000000 -0.236703 0.549475 0.578174 -0.222860 0.777704 -0.096386 -0.179242 -0.486770 -0.127939 0.000000 0.000000 0.000000 -0.211378 0.712895 0.319068 -0.252363 -0.165993 0.161328 -0.176842 0.653955 -0.168534 0.000000 0.000000 0.000000 
58.891000 -144.897990 1143.848020 0.708436 -1.983388 -0.754091 -0.280483 0.122791 0.947940 -0.275913 -0.008015 -0.274074 -0.276410 0.002609 0.176701 0.174026 -1.261015 -0.474181 0.000000 0.000000 0.000000 -0.490609 0.351687 -0.194159 0.035582 0.260247 0.295391 0.091311 -0.443949 0.077954 0.000000 0.000000 0.000000 0.879112 0.882492 0.510607 -0.059248 0.714572 -0.553157 -0.168092 -0.431839 -0.423682 0.000000 0.000000 0.000000 -0.220827 0.398749 0.534625 -0.209399 0.632665 -0.068753 -0.169465 -0.443394 -0.119331 0.000000 0.000000 0.000000 -0.203147 0.572308 0.300164 -0.244196 -0.306463 0.150301 -0.161977 0.693208 -0.166381 0.000000 0.000000 0.000000 
60.569000 -144.858000 1143.917970 0.600007 -1.712138 -0.726503 -0.347346 0.194788 0.907637 -0.344885 -0.029755 -0.266061 -0.344485 0.027033 0.162572 0.192386 -1.854361 -0.525795 0.000000 0.000000 0.000000 -0.394642 0.455153 -0.280623 0.046034 0.378848 0.234193 0.227147 -0.791974 0.536879 0.000000 0.000000 0.000000 0.848777 1.218826 0.746137 -0.102349 1.048782 -0.669849 -0.307542 -0.792222 -0.772995 0.000000 0.000000 0.000000 -0.179720 0.334205 0.491057 -0.160765 0.310822 -0.061473 -0.136902 -0.326803 -0.093355 0.000000 0.000000 0.000000 -0.175795 0.524730 0.280019 -0.229595 -0.606518 0.141289 -0.131170 0.779467 -0.162539 0.000000 0.000000 0.000000 
62.665000 -144.908000 1143.965940 0.449228 -1.423710 -0.689394 -0.415038 0.261842 0.810779 -0.415189 -0.054759 -0.234893 -0.413595 0.059977 0.130201 0.213010 -2.529056 -0.581888 0.000000 0.000000 0.000000 -0.173595 0.601692 -0.335038 0.045356 0.564324 0.120182 0.382737 -1.145990 1.110403 0.000000 0.000000 0.000000 0.707938 1.611409 0.987164 -0.138751 1.460602 -0.763060 -0.453945 -1.167493 -1.145284 0.000000 0.000000 0.000000 -0.121400 0.304111 0.442094 -0.090936 -0.086683 -0.063122 -0.089400 -0.163187 -0.056078 0.000000 0.000000 0.000000 -0.133950 0.515789 0.255484 -0.205574 -0.967969 0.131003 -0.087554 0.889367 -0.155532 0.000000 0.000000 0.000000 
64.840000 -145.034000 1144.034060 0.267719 -1.177047 -0.638183 -0.446302 0.263169 0.685425 -0.447579 -0.061317 -0.195062 -0.445556 0.069765 0.097176 0.217844 -2.854989 -0.593349 0.000000 0.000000 0.000000 0.058857 0.729858 -0.331118 0.027436 0.736467 0.052132 0.440830 -1.194067 1.416657 0.000000 0.000000 0.000000 0.545199 1.860859 1.066923 -0.118289 1.743381 -0.726935 -0.481866 -1.129797 -1.346645 0.000000 0.000000 0.000000 -0.056510 0.226541 0.381620 -0.023340 -0.299144 -0.059896 -0.037620 -0.006633 -0.017558 0.000000 0.000000 0.000000 -0.077767 0.454830 0.220510 -0.154017 -1.117717 0.107255 -0.031274 0.951196 -0.136292 0.000000 0.000000 0.000000 
67.033000 -145.312000 1144.109010 0.036947 -0.989350 -0.563780 -0.419023 0.124509 0.521771 -0.418007 -0.030379 -0.146829 -0.417170 0.031878 0.067643 0.196235 -2.537774 -0.533957 0.000000 0.000000 0.000000 0.303213 0.831614 -0.240759 -0.018510 0.889225 0.075513 0.336495 -0.721683 1.290887 0.000000 0.000000 0.000000 0.369277 1.861488 0.888254 0.003114 1.797006 -0.443850 -0.307096 -0.318192 -1.333238 0.000000 0.000000 0.000000 0.017662 0.063574 0.306206 0.039628 -0.225934 -0.048690 0.019856 0.134185 0.021996 0.000000 0.000000 0.000000 0.005999 0.284258 0.172415 -0.050965 -0.905165 0.052162 0.049271 0.918968 -0.093364 0.000000 0.000000 0.000000 
69.305000 -145.664990 1144.203980 -0.224260 -0.841881 -0.476151 -0.355615 -0.082721 0.335081 -0.350667 0.019398 -0.092719 -0.351759 -0.026632 0.037126 0.161829 -1.872218 -0.440483 0.000000 0.000000 0.000000 0.561270 0.913410 -0.094213 -0.081165 1.027362 0.149810 0.134356 0.059459 0.898394 0.000000 0.000000 0.000000 0.170001 1.716428 0.558275 0.184329 1.719450 -0.025014 -0.011271 0.915964 -1.151552 0.000000 0.000000 0.000000 0.098711 -0.148208 0.221346 0.100765 0.032054 -0.033777 0.081883 0.266703 0.062795 0.000000 0.000000 0.000000 0.103893 0.060143 0.116523 0.079629 -0.480640 -0.018348 0.142331 0.839224 -0.038335 0.000000 0.000000 0.000000 
71.491000 -145.860990 1144.406010 -0.444834 -0.741575 -0.396718 -0.284731 -0.194014 0.184573 -0.278075 0.047524 -0.048101 -0.280123 -0.054319 0.013812 0.133900 -1.315829 -0.364418 0.000000 0.000000 0.000000 0.711549 0.935217 0.033449 -0.132292 1.084637 0.259798 -0.089677 0.821588 0.347730 0.000000 0.000000 0.000000 -0.010001 1.539267 0.242010 0.344578 1.602643 0.272619 0.279466 1.938668 -0.752647 0.000000 0.000000 0.000000 0.167136 -0.376997 0.133740 0.143348 0.433068 -0.013659 0.132940 0.355684 0.094424 0.000000 0.000000 0.000000 0.175909 -0.137893 0.059410 0.184394 -0.021477 -0.071592 0.212299 0.776782 0.003363 0.000000 0.000000 0.000000 
73.467000 -145.778000 1144.786990 -0.598820 -0.700655 -0.332210 -0.200206 -0.110087 0.092558 -0.196384 0.036017 -0.014050 -0.197502 -0.021488 -0.002218 0.116568 -1.057489 -0.317444 0.000000 0.000000 0.000000 0.661496 0.854578 0.115327 -0.159531 1.000271 0.445659 -0.344431 1.520487 -0.465251 0.000000 0.000000 0.000000 -0.174782 1.337819 -0.017118 0.456811 1.450323 0.319254 0.540873 2.513664 0.015040 0.000000 0.000000 0.000000 0.216346 -0.663154 0.037132 0.155153 1.078606 0.024284 0.167001 0.372864 0.111411 0.000000 0.000000 0.000000 0.202791 -0.319782 -0.001768 0.245498 0.499728 -0.088813 0.244007 0.747055 0.022442 0.000000 0.000000 0.000000 
